# xmcd
#
# Track frame offsets: 
#        150
#        11661
#        35168
#        44968
#        59773
#        95811
#        117027
#        138593
#        150618
#        172830
#        201063
#        230591
#        270451
#        293797
#        331586
#
# Disc length: 4643 seconds
#
# Revision: 0
# Processed by: cddbd v1.5.2PL0 Copyright (c) Steve Scherf et al.
# Submitted via: ExactAudioCopy v1.1
#
DISCID=dc12210f
DTITLE=Stevie Ray Vaughan - Bumbershoot  Arts Festival - 1985
DYEAR=2015
DGENRE=Blues Rock
TTITLE0=Scuttle Buttin
TTITLE1=Say What
TTITLE2=Lookin' Out The Window
TTITLE3=Look At Little Sister
TTITLE4=Ain't Gonna Give Up On Love
TTITLE5=Change It
TTITLE6=You'll Be Mine
TTITLE7=Empty Arms
TTITLE8=Come On
TTITLE9=Cold Shot
TTITLE10=Couldn't Stand The Weather
TTITLE11=Life Without You
TTITLE12=Pride and Joy
TTITLE13=Texas Flood (With Bonnie Raitt)
TTITLE14=Testify (With Bonnie Raitt)
EXTD=
EXTT0=
EXTT1=
EXTT2=
EXTT3=
EXTT4=
EXTT5=
EXTT6=
EXTT7=
EXTT8=
EXTT9=
EXTT10=
EXTT11=
EXTT12=
EXTT13=
EXTT14=
PLAYORDER=
